<?xml version="1.0" encoding="UTF-8"?>
<svg version="1.1" xmlns="http://www.w3.org/2000/svg" width="512" height="512">
<path d="M0 0 C168.96 0 337.92 0 512 0 C512 168.96 512 337.92 512 512 C343.04 512 174.08 512 0 512 C0 343.04 0 174.08 0 0 Z " fill="#FE6666" transform="translate(0,0)"/>
<path d="M0 0 C84.48 0 168.96 0 256 0 C256 168.96 256 337.92 256 512 C171.52 512 87.04 512 0 512 C0 343.04 0 174.08 0 0 Z " fill="#00C6CD" transform="translate(0,0)"/>
<path d="M0 0 C84.48 0 168.96 0 256 0 C256 84.48 256 168.96 256 256 C171.52 256 87.04 256 0 256 C0 171.52 0 87.04 0 0 Z " fill="#A97FFE" transform="translate(0,0)"/>
<path d="M0 0 C42.24 0 84.48 0 128 0 C128 168.96 128 337.92 128 512 C85.76 512 43.52 512 0 512 C0 495.83 0 479.66 0 463 C10.89 461.515 10.89 461.515 22 460 C44.86485579 452.2051628 62.8060719 438.53893013 73.6640625 416.64453125 C80.7082544 401.01197731 81.49846678 386.62769041 81.6875 369.6875 C81.8421875 358.9521875 81.8421875 358.9521875 82 348 C65.83 348 49.66 348 33 348 C33.80698424 343.9650788 34.74500958 340.86751998 36.28515625 337.11328125 C36.73310547 336.01048828 37.18105469 334.90769531 37.64257812 333.77148438 C38.11115234 332.63001953 38.57972656 331.48855469 39.0625 330.3125 C39.99399858 328.03903347 40.92254299 325.76435355 41.84765625 323.48828125 C42.26023682 322.48321533 42.67281738 321.47814941 43.09790039 320.44262695 C44.1154813 318.12129038 44.1154813 318.12129038 44 316 C35.09 312.37 26.18 308.74 17 305 C16.67 306.65 16.34 308.3 16 310 C15.54255194 311.30524654 15.04563346 312.59735908 14.50952148 313.87231445 C14.20928574 314.59268387 13.90904999 315.31305328 13.59971619 316.05525208 C13.27677078 316.8169017 12.95382538 317.57855133 12.62109375 318.36328125 C12.28956802 319.15526413 11.9580423 319.94724701 11.61647034 320.76322937 C10.5611488 323.28149836 9.49942502 325.7970095 8.4375 328.3125 C7.71897637 330.02391031 7.00087265 331.73549698 6.28320312 333.44726562 C4.52699356 337.63356919 2.7650389 341.81741186 1 346 C0.67 346 0.34 346 0 346 C0.09320573 345.02638315 0.09320573 345.02638315 0.18829441 344.03309727 C2.15893119 323.06857155 3.41235563 302.10761677 4.0625 281.0625 C4.10043781 279.86879217 4.10043781 279.86879217 4.13914204 278.65096903 C5.31084444 240.34308374 5.6504921 206.20596938 -21.87419128 176.58757019 C-34.70831156 163.41163425 -49.28472223 151.65949245 -64.35469913 141.14244461 C-73.60755887 134.68208651 -79.97897056 128.05140575 -83.875 117.25 C-84.26429688 116.20328125 -84.65359375 115.1565625 -85.0546875 114.078125 C-88.7314384 102.10589481 -87.94321739 89.09554478 -82.453125 77.82421875 C-75.15739808 64.86300478 -66.0997122 56.27489233 -52 51 C-50.65808594 50.46052734 -50.65808594 50.46052734 -49.2890625 49.91015625 C-45.1516327 48.76523803 -41.39449216 48.7072338 -37.125 48.75 C-35.97837891 48.73839844 -35.97837891 48.73839844 -34.80859375 48.7265625 C-22.8360802 48.7672162 -9.62667717 53.37332283 -1 62 C-0.67 41.54 -0.34 21.08 0 0 Z " fill="#FEDC33" transform="translate(384,0)"/>
<path d="M0 0 C42.24 0 84.48 0 128 0 C128 84.48 128 168.96 128 256 C85.76 256 43.52 256 0 256 C0 219.37 0 182.74 0 145 C8.58 140.05 17.16 135.1 26 130 C29.96 127.69 33.92 125.38 38 123 C38.66 123 39.32 123 40 123 C35.46773738 114.5878459 30.76379626 106.28223461 26 98 C22.29861738 98.57424692 19.62849246 99.5765537 16.42578125 101.50390625 C15.59369141 101.99697266 14.76160156 102.49003906 13.90429688 102.99804688 C13.04900391 103.51431641 12.19371094 104.03058594 11.3125 104.5625 C9.60255392 105.58846765 7.89041878 106.61079852 6.17578125 107.62890625 C5.42208252 108.08338135 4.66838379 108.53785645 3.8918457 109.00610352 C2 110 2 110 0 110 C0 73.7 0 37.4 0 0 Z " fill="#874DFE" transform="translate(128,0)"/>
<path d="M0 0 C42.24 0 84.48 0 128 0 C128 15.84 128 31.68 128 48 C110.51 48 93.02 48 75 48 C75 90.57 75 133.14 75 177 C65.1 177 55.2 177 45 177 C45 186.9 45 196.8 45 207 C64.8 207 84.6 207 105 207 C105 174.66 105 142.32 105 109 C112.59 109 120.18 109 128 109 C128 157.51 128 206.02 128 256 C85.76 256 43.52 256 0 256 C0 171.52 0 87.04 0 0 Z " fill="#00E6EF" transform="translate(0,256)"/>
<path d="M0 0 C42.24 0 84.48 0 128 0 C128 20.79 128 41.58 128 63 C124.37 60.69 120.74 58.38 117 56 C104.76118159 49.9463909 91.75526216 47.64247831 78.25 50.90625 C71.54712804 53.372401 65.70243209 56.72919115 60 61 C59.13375 61.5775 58.2675 62.155 57.375 62.75 C47.34529664 72.25182423 42.09615968 85.16682039 41.6875 98.8125 C41.98390218 112.56904841 46.85113653 124.96974887 56.26074219 135.01855469 C56.7815826 135.57827847 57.30242302 136.13800224 57.83904648 136.71468735 C63.02325646 142.18627374 68.60822437 147.15865564 74.26983643 152.12628174 C79.40744893 156.63725521 84.41036651 161.29139341 89.41041946 165.95375443 C93.178993 169.4569704 96.97807366 172.90156861 100.88818359 176.24658203 C101.65750717 176.9138179 102.42683075 177.58105377 103.21946716 178.26850891 C104.63800419 179.49452767 106.06828888 180.7072198 107.51502991 181.89982605 C116.00744878 189.2931685 120.9328495 197.49976484 128 207 C128 223.17 128 239.34 128 256 C85.76 256 43.52 256 0 256 C0 171.52 0 87.04 0 0 Z " fill="#FFED98" transform="translate(256,0)"/>
<path d="M0 0 C42.24 0 84.48 0 128 0 C128 84.48 128 168.96 128 256 C85.76 256 43.52 256 0 256 C0 239.83 0 223.66 0 207 C7.26 206.01 14.52 205.02 22 204 C44.86485579 196.2051628 62.8060719 182.53893013 73.6640625 160.64453125 C80.7082544 145.01197731 81.49846678 130.62769041 81.6875 113.6875 C81.790625 106.530625 81.89375 99.37375 82 92 C65.83 92 49.66 92 33 92 C33.80698424 87.9650788 34.74500958 84.86751998 36.28515625 81.11328125 C36.73310547 80.01048828 37.18105469 78.90769531 37.64257812 77.77148438 C38.11115234 76.63001953 38.57972656 75.48855469 39.0625 74.3125 C39.99399858 72.03903347 40.92254299 69.76435355 41.84765625 67.48828125 C42.26023682 66.48321533 42.67281738 65.47814941 43.09790039 64.44262695 C44.1154813 62.12129038 44.1154813 62.12129038 44 60 C30.635 54.555 30.635 54.555 17 49 C16.67 50.65 16.34 52.3 16 54 C15.54255194 55.30524654 15.04563346 56.59735908 14.50952148 57.87231445 C14.05916786 58.95286858 14.05916786 58.95286858 13.59971619 60.05525208 C13.27677078 60.8169017 12.95382538 61.57855133 12.62109375 62.36328125 C12.28956802 63.15526413 11.9580423 63.94724701 11.61647034 64.76322937 C10.5611488 67.28149836 9.49942502 69.7970095 8.4375 72.3125 C7.71897637 74.02391031 7.00087265 75.73549698 6.28320312 77.44726562 C4.52699356 81.63356919 2.7650389 85.81741186 1 90 C0.67 90 0.34 90 0 90 C0 60.3 0 30.6 0 0 Z " fill="#E52E6B" transform="translate(384,256)"/>
<path d="M0 0 C0.76441406 -0.00773437 1.52882813 -0.01546875 2.31640625 -0.0234375 C14.02313926 0.01631372 23.75314222 4.2131502 33.08203125 11.078125 C35.31074869 12.58171145 35.31074869 12.58171145 39.125 12.25 C41.43477357 10.85950855 41.43477357 10.85950855 43.75 9 C55.23815669 0.60480857 67.24449473 -0.84386846 81.125 0.25 C94.52879169 2.71134685 106.56405836 9.91551533 114.75 20.8125 C122.55049658 32.40783275 125.76568025 45.47434584 123.6640625 59.27734375 C121.33713141 69.69378233 117.2342544 78.39015563 109.86425781 86.16088867 C109.3434174 86.71714274 108.82257698 87.27339682 108.28595352 87.84650707 C101.58415705 94.95617073 94.65577157 101.8436978 87.734375 108.73828125 C86.29398918 110.17679634 84.85382817 111.61553656 83.41387939 113.05448914 C79.66797693 116.79661785 75.91907902 120.53573096 72.16949463 124.27416992 C68.3259845 128.1073538 64.48539026 131.9434569 60.64453125 135.77929688 C53.14083132 143.27235048 45.63395564 150.76221352 38.125 158.25 C35.27595231 156.95415685 33.20992161 155.58671901 30.99565125 153.38134766 C30.40286377 152.79564499 29.81007629 152.20994232 29.19932556 151.60649109 C28.56080154 150.96548965 27.92227753 150.32448822 27.2644043 149.6640625 C26.58256073 148.98732986 25.90071716 148.31059723 25.19821167 147.61335754 C22.94334312 145.37239786 20.69599147 143.1240745 18.44921875 140.875 C16.88008732 139.30975687 15.31073283 137.74473733 13.74116516 136.17993164 C10.44844973 132.89468275 7.15964304 129.60557878 3.87329102 126.31396484 C-0.3210979 122.11380328 -4.52668894 117.92506607 -8.73557758 113.73944092 C-11.98294098 110.5068793 -15.22327625 107.26734214 -18.4616909 104.02581787 C-20.00816291 102.47985658 -21.55697635 100.93623359 -23.10824013 99.39508057 C-42.59481104 80.01990319 -42.59481104 80.01990319 -46.75 68.5 C-47.13929688 67.45328125 -47.52859375 66.4065625 -47.9296875 65.328125 C-51.6064384 53.35589481 -50.81821739 40.34554478 -45.328125 29.07421875 C-38.03239808 16.11300478 -28.9747122 7.52489233 -14.875 2.25 C-13.53308594 1.71052734 -13.53308594 1.71052734 -12.1640625 1.16015625 C-8.0266327 0.01523803 -4.26949216 -0.0427662 0 0 Z " fill="#FE6666" transform="translate(346.875,48.75)"/>
<path d="M0 0 C5.74310268 0.99851965 10.87070442 3.19009331 16.25 5.375 C17.26835937 5.77460938 18.28671875 6.17421875 19.3359375 6.5859375 C20.30273438 6.9778125 21.26953125 7.3696875 22.265625 7.7734375 C23.15024414 8.12841309 24.03486328 8.48338867 24.94628906 8.84912109 C27 10 27 10 28 13 C27.24557372 15.36282507 26.42579176 17.57413404 25.47265625 19.85546875 C24.73801147 21.67147583 24.73801147 21.67147583 23.98852539 23.52416992 C23.35293701 25.06306885 22.71734863 26.60196777 22.0625 28.1875 C20.061875 33.075625 18.06125 37.96375 16 43 C32.17 43 48.34 43 65 43 C65.0825 50.095 65.165 57.19 65.25 64.5 C65.28641602 66.70365234 65.32283203 68.90730469 65.36035156 71.17773438 C65.500889 85.6777305 64.3241247 99.22068043 57.3125 112.25 C56.9729126 112.90347412 56.6333252 113.55694824 56.28344727 114.23022461 C45.31412156 134.68815438 28.22623724 148.28109187 6.125 155.375 C-14.79630488 161.65685395 -37.59747617 158.30478416 -56.78515625 148.58984375 C-77.16523659 136.99483766 -90.48818814 119.2865499 -97 97 C-98.82335007 90.35312331 -99.27130643 84.15180222 -99.1953125 77.27734375 C-99.19329834 76.40178833 -99.19128418 75.52623291 -99.18920898 74.62414551 C-99.17885041 71.39520935 -99.150929 68.16634866 -99.125 64.9375 C-99.08375 57.698125 -99.0425 50.45875 -99 43 C-71.94 42.67 -44.88 42.34 -17 42 C-14.36 35.4 -11.72 28.8 -9 22 C-7.33918765 17.91402415 -5.67600576 13.82967239 -4 9.75 C-3.60683594 8.7909375 -3.21367187 7.831875 -2.80859375 6.84375 C-1.87315329 4.5621879 -0.93697502 2.28093221 0 0 Z " fill="#EBE5F1" transform="translate(401,305)"/>
<path d="M0 0 C44.88 0 89.76 0 136 0 C136 52.14 136 104.28 136 158 C116.2 158 96.4 158 76 158 C76 148.1 76 138.2 76 128 C85.9 128 95.8 128 106 128 C106 105.56 106 83.12 106 60 C80.92 60 55.84 60 30 60 C30 92.34 30 124.68 30 158 C10.2 158 -9.6 158 -30 158 C-30 148.1 -30 138.2 -30 128 C-20.1 128 -10.2 128 0 128 C0 85.76 0 43.52 0 0 Z " fill="#273366" transform="translate(75,305)"/>
<path d="M0 0 C12.95413908 8.41286576 20.55769339 19.50633357 24.2421875 34.6640625 C26.36948764 48.33956338 22.94618268 61.51835847 15.625 73.125 C13.9032547 75.16894721 12.18147314 77.11572502 10.34619141 79.04956055 C9.5641783 79.8844817 9.5641783 79.8844817 8.76636696 80.73626995 C2.15327383 87.75371091 -4.66074334 94.57501213 -11.4765625 101.39453125 C-12.8895863 102.81077702 -14.30253863 104.2270941 -15.71542358 105.64347839 C-18.64658135 108.58056493 -21.5797377 111.51563827 -24.51416016 114.44946289 C-28.28090312 118.21610305 -32.04064847 121.98964907 -35.79879189 125.76486683 C-38.70005037 128.67719712 -41.6057949 131.58501855 -44.51285934 134.49155235 C-45.90280042 135.88267511 -47.2911165 137.27542343 -48.67778397 138.66980934 C-50.60163477 140.60338853 -52.53163301 142.53061184 -54.46337891 144.45629883 C-55.03578308 145.03432251 -55.60818726 145.61234619 -56.19793701 146.20788574 C-60.14666508 150.125 -60.14666508 150.125 -62.375 150.125 C-62.58536146 131.60124516 -62.74400705 113.07773309 -62.84130955 94.55303097 C-62.8876926 85.95137003 -62.95091228 77.35045177 -63.05395508 68.74926758 C-63.14373854 61.25128399 -63.20174187 53.75383826 -63.22179645 46.25533205 C-63.23351785 42.28558636 -63.26100397 38.3173792 -63.32657051 34.34812737 C-63.38783475 30.60890103 -63.40647229 26.87184075 -63.39296913 23.13216019 C-63.39661165 21.11146093 -63.4449602 19.09099586 -63.49478149 17.07090759 C-63.40586317 8.35408888 -63.40586317 8.35408888 -60.4018383 4.77241707 C-58.13400342 2.97760354 -55.90879455 1.51168169 -53.375 0.125 C-51.97894531 -0.71998047 -51.97894531 -0.71998047 -50.5546875 -1.58203125 C-49.79414063 -1.94683594 -49.03359375 -2.31164063 -48.25 -2.6875 C-47.48429687 -3.06519531 -46.71859375 -3.44289062 -45.9296875 -3.83203125 C-30.88683078 -9.97338101 -13.96074769 -7.96559177 0 0 Z " fill="#E62E6A" transform="translate(446.375,55.875)"/>
<path d="M0 0 C27.06 0 54.12 0 82 0 C82 37.95 82 75.9 82 115 C57.85200603 115 39.02645345 106.36995791 21.5859375 89.69140625 C7.42319035 74.87162444 -0.42093126 54.68695895 -0.1953125 34.27734375 C-0.19329834 33.40178833 -0.19128418 32.52623291 -0.18920898 31.62414551 C-0.17885041 28.39520935 -0.150929 25.16634866 -0.125 21.9375 C-0.08375 14.698125 -0.0425 7.45875 0 0 Z " fill="#FFF4F4" transform="translate(302,348)"/>
<path d="M0 0 C17.49 0 34.98 0 53 0 C53 19.47 53 38.94 53 59 C70.49 59 87.98 59 106 59 C106 59.33 106 59.66 106 60 C80.92 60 55.84 60 30 60 C30 92.34 30 124.68 30 158 C10.2 158 -9.6 158 -30 158 C-30 148.1 -30 138.2 -30 128 C-20.1 128 -10.2 128 0 128 C0 85.76 0 43.52 0 0 Z " fill="#3F4A80" transform="translate(75,305)"/>
<path d="M0 0 C5.74310268 0.99851965 10.87070442 3.19009331 16.25 5.375 C17.26835937 5.77460938 18.28671875 6.17421875 19.3359375 6.5859375 C20.30273438 6.9778125 21.26953125 7.3696875 22.265625 7.7734375 C23.15024414 8.12841309 24.03486328 8.48338867 24.94628906 8.84912109 C27 10 27 10 28 13 C27.24557372 15.36282507 26.42579176 17.57413404 25.47265625 19.85546875 C24.73801147 21.67147583 24.73801147 21.67147583 23.98852539 23.52416992 C23.35293701 25.06306885 22.71734863 26.60196777 22.0625 28.1875 C20.061875 33.075625 18.06125 37.96375 16 43 C32.17 43 48.34 43 65 43 C65 52.9 65 62.8 65 73 C37.94 73 10.88 73 -17 73 C-17 37.98882528 -17 37.98882528 -10.21142578 24.50537109 C-7.88644524 19.69703771 -5.98439859 14.70602655 -4 9.75 C-3.23111389 7.86899454 -2.46046166 5.98870937 -1.6875 4.109375 C-1.36136719 3.31499023 -1.03523438 2.52060547 -0.69921875 1.70214844 C-0.46847656 1.14043945 -0.23773438 0.57873047 0 0 Z " fill="#CFCFE6" transform="translate(401,305)"/>
<path d="M0 0 C2.9994837 2.32890426 4.43309052 5.69743745 6.15283203 9.00537109 C7.0395662 10.65520259 7.92903445 12.30356664 8.82080078 13.95068359 C9.29694824 14.83272461 9.7730957 15.71476562 10.26367188 16.62353516 C12.90374967 21.43033271 15.68794268 26.15201614 18.46533203 30.88037109 C24.13247248 40.55360698 29.76274971 50.2471014 35.34692383 59.96850586 C38.26542775 65.04592421 41.20111625 70.10989493 44.20361328 75.13818359 C44.72544189 76.01821045 45.24727051 76.8982373 45.78491211 77.80493164 C46.75417846 79.43643754 47.73144369 81.06322756 48.71801758 82.68432617 C49.81554166 84.53924037 50.80800753 86.45560975 51.77783203 88.38037109 C50.60467524 91.89984148 50.05726453 92.07381669 46.91845703 93.75537109 C46.13212891 94.18333984 45.34580078 94.61130859 44.53564453 95.05224609 C43.70806641 95.49052734 42.88048828 95.92880859 42.02783203 96.38037109 C40.40769471 97.25473092 38.78789393 98.12971466 37.16845703 99.00537109 C36.40339844 99.41271484 35.63833984 99.82005859 34.85009766 100.23974609 C33.15426337 101.1731742 31.51122935 102.20195121 29.88720703 103.25537109 C28.84306641 103.81224609 28.84306641 103.81224609 27.77783203 104.38037109 C23.83573665 103.0663393 23.47725671 101.59180457 21.47705078 98.00146484 C20.83703125 96.86515625 20.19701172 95.72884766 19.53759766 94.55810547 C18.84683401 93.31136535 18.15607903 92.06462044 17.46533203 90.81787109 C16.38097289 88.88526924 15.29330033 86.95455541 14.20559692 85.02383423 C13.46662173 83.71143341 12.72873609 82.39841854 11.99191284 81.08480835 C8.65681917 75.14222563 5.22960795 69.25589401 1.77783203 63.38037109 C-2.00791352 56.92062799 -5.76664092 50.44669644 -9.47607422 43.94287109 C-9.83551117 43.31268066 -10.19494812 42.68249023 -10.5652771 42.03320312 C-12.31524 38.96312387 -14.06232827 35.89144107 -15.80615234 32.81787109 C-18.51757937 28.05149683 -21.22893409 23.3111685 -24.18701172 18.69287109 C-26.22216797 15.38037109 -26.22216797 15.38037109 -26.22216797 13.38037109 C-22.48764811 10.6855852 -18.44361857 8.45689593 -14.47216797 6.13037109 C-13.36099609 5.45490234 -12.24982422 4.77943359 -11.10498047 4.08349609 C-10.03505859 3.45443359 -8.96513672 2.82537109 -7.86279297 2.17724609 C-6.87827148 1.59297852 -5.89375 1.00871094 -4.87939453 0.40673828 C-2.22216797 -0.61962891 -2.22216797 -0.61962891 0 0 Z " fill="#293467" transform="translate(69.22216796875,102.61962890625)"/>
<path d="M0 0 C1.5871582 2.30297852 1.5871582 2.30297852 3.30078125 5.37890625 C3.94080078 6.51521484 4.58082031 7.65152344 5.24023438 8.82226562 C5.93099802 10.06900574 6.62175301 11.31575066 7.3125 12.5625 C8.39685914 14.49510185 9.4845317 16.42581568 10.57223511 18.35653687 C11.3112103 19.66893768 12.04909594 20.98195255 12.78591919 22.29556274 C16.12101286 28.23814546 19.54822408 34.12447708 23 40 C26.78574556 46.4597431 30.54447295 52.93367465 34.25390625 59.4375 C34.6133432 60.06769043 34.97278015 60.69788086 35.34310913 61.34716797 C37.09307203 64.41724723 38.8401603 67.48893002 40.58398438 70.5625 C43.2954114 75.32887427 46.00676612 80.0692026 48.96484375 84.6875 C51 88 51 88 51 90 C47.26548014 92.6947859 43.2214506 94.92347516 39.25 97.25 C38.13882813 97.92546875 37.02765625 98.6009375 35.8828125 99.296875 C34.81289062 99.9259375 33.74296875 100.555 32.640625 101.203125 C31.65610352 101.78739258 30.67158203 102.37166016 29.65722656 102.97363281 C27 104 27 104 24.77783203 103.38037109 C21.77835273 101.05147025 20.34472787 97.6829346 18.625 94.375 C17.73697575 92.72255805 16.84620591 91.07158951 15.953125 89.421875 C15.47681641 88.53951172 15.00050781 87.65714844 14.50976562 86.74804688 C11.89304801 81.9851469 9.1296676 77.30902034 6.375 72.625 C0.41161133 62.45598289 -5.45835714 52.23678787 -11.28149414 41.98706055 C-14.22569034 36.81094534 -17.1869254 31.65001431 -20.26953125 26.5546875 C-20.7480957 25.76118896 -21.22666016 24.96769043 -21.71972656 24.15014648 C-22.5862807 22.72222282 -23.46134999 21.29941584 -24.34667969 19.88305664 C-25.30762359 18.29933275 -26.16558638 16.65388889 -27 15 C-25.22761837 9.68285511 -19.33422983 7.87564972 -14.625 5.25 C-13.55765625 4.63511719 -12.4903125 4.02023438 -11.390625 3.38671875 C-10.36710937 2.81050781 -9.34359375 2.23429687 -8.2890625 1.640625 C-7.34756348 1.10985352 -6.40606445 0.57908203 -5.43603516 0.03222656 C-3 -1 -3 -1 0 0 Z " fill="#100F4E" transform="translate(162,50)"/>
<path d="M0 0 C27.39 0 54.78 0 83 0 C83 9.9 83 19.8 83 30 C55.61 30 28.22 30 0 30 C0 20.1 0 10.2 0 0 Z " fill="#0F0F4D" transform="translate(128,305)"/>
<path d="M0 0 C27.06 0 54.12 0 82 0 C82 9.9 82 19.8 82 30 C54.94 30 27.88 30 0 30 C0 20.1 0 10.2 0 0 Z " fill="#ECE6F2" transform="translate(302,348)"/>
<path d="M0 0 C2.90785335 1.244681 3.6909668 2.96586583 5.2734375 5.67749023 C5.84707031 6.65331055 6.42070312 7.62913086 7.01171875 8.63452148 C7.59824219 9.6619043 8.18476563 10.68928711 8.7890625 11.74780273 C9.69205078 13.27727539 9.69205078 13.27727539 10.61328125 14.83764648 C15.0390625 22.45480741 15.0390625 22.45480741 15.0390625 25.87280273 C13.50765625 26.71198242 13.50765625 26.71198242 11.9453125 27.56811523 C2.96849474 32.51004207 -5.92970759 37.57135088 -14.7734375 42.74780273 C-16.28019043 43.62698364 -16.28019043 43.62698364 -17.81738281 44.52392578 C-22.8956514 47.4881438 -27.96410771 50.46744045 -33.01953125 53.47045898 C-34.91642988 54.58414365 -36.81355524 55.69744224 -38.7109375 56.81030273 C-39.58596924 57.33672363 -40.46100098 57.86314453 -41.36254883 58.40551758 C-42.17361084 58.87812012 -42.98467285 59.35072266 -43.8203125 59.83764648 C-44.52639648 60.25651123 -45.23248047 60.67537598 -45.95996094 61.10693359 C-47.9609375 61.87280273 -47.9609375 61.87280273 -50.01757812 61.80029297 C-52.80264333 60.47108911 -53.64922627 58.71739346 -55.1953125 56.06811523 C-55.76894531 55.09229492 -56.34257813 54.11647461 -56.93359375 53.11108398 C-57.52011719 52.08370117 -58.10664062 51.05631836 -58.7109375 49.99780273 C-59.31292969 48.9781543 -59.91492188 47.95850586 -60.53515625 46.90795898 C-64.9609375 39.29079806 -64.9609375 39.29079806 -64.9609375 35.87280273 C-64.32929687 35.5220166 -63.69765625 35.17123047 -63.046875 34.80981445 C-51.05898042 28.14435506 -39.11199878 21.4257288 -27.2734375 14.49780273 C-26.27795898 13.91683838 -25.28248047 13.33587402 -24.25683594 12.73730469 C-19.9861621 10.24202731 -15.72365648 7.73617482 -11.48828125 5.18139648 C-10.51217896 4.60107666 -10.51217896 4.60107666 -9.51635742 4.0090332 C-7.86259691 3.02549855 -6.21606903 2.02982892 -4.5703125 1.03295898 C-1.9609375 -0.12719727 -1.9609375 -0.12719727 0 0 Z " fill="#CDCDE5" transform="translate(152.9609375,97.127197265625)"/>
<path d="M0 0 C17.49 0 34.98 0 53 0 C53 9.9 53 19.8 53 30 C35.51 30 18.02 30 0 30 C0 20.1 0 10.2 0 0 Z " fill="#283366" transform="translate(75,305)"/>
<path d="M0 0 C5.74310268 0.99851965 10.87070442 3.19009331 16.25 5.375 C17.26835937 5.77460938 18.28671875 6.17421875 19.3359375 6.5859375 C20.30273438 6.9778125 21.26953125 7.3696875 22.265625 7.7734375 C23.15024414 8.12841309 24.03486328 8.48338867 24.94628906 8.84912109 C27 10 27 10 28 13 C27.02783203 15.98681641 27.02783203 15.98681641 25.5078125 19.6015625 C25.24241669 20.23863129 24.97702087 20.87570007 24.70358276 21.53207397 C24.14129997 22.87708805 23.57445876 24.22020422 23.00341797 25.56152344 C22.12691681 27.62049725 21.2634424 29.6845435 20.40234375 31.75 C16.17677004 41.82322996 16.17677004 41.82322996 15 43 C12.70848583 43.08790975 10.41427476 43.10694038 8.12109375 43.09765625 C7.09110008 43.09553383 7.09110008 43.09553383 6.04029846 43.09336853 C3.83932199 43.08775479 1.63844591 43.07520007 -0.5625 43.0625 C-2.05143083 43.05748676 -3.54036324 43.05292355 -5.02929688 43.04882812 C-8.68623075 43.03778093 -12.34310558 43.02050713 -16 43 C-15.44547608 37.30710649 -13.87199865 32.67809868 -11.62109375 27.44140625 C-11.12380516 26.25767677 -11.12380516 26.25767677 -10.61647034 25.05003357 C-9.56449272 22.55086458 -8.5012111 20.05669422 -7.4375 17.5625 C-6.71864657 15.86034447 -6.00053979 14.15787342 -5.28320312 12.45507812 C-3.53075175 8.29968548 -1.76815202 4.14873481 0 0 Z " fill="#EBE3F0" transform="translate(401,305)"/>
<path d="M0 0 C0 11.55 0 23.1 0 35 C-5.56875 38.2484375 -5.56875 38.2484375 -11.25 41.5625 C-12.4143457 42.25029541 -13.57869141 42.93809082 -14.77832031 43.64672852 C-15.70225586 44.17709717 -16.62619141 44.70746582 -17.578125 45.25390625 C-18.99206543 46.07870483 -18.99206543 46.07870483 -20.43457031 46.92016602 C-23 48 -23 48 -25.13671875 47.97192383 C-27.81819778 46.57321209 -28.7174698 44.7945879 -30.234375 42.1953125 C-30.80800781 41.21949219 -31.38164063 40.24367187 -31.97265625 39.23828125 C-32.55917969 38.21089844 -33.14570312 37.18351562 -33.75 36.125 C-34.35199219 35.10535156 -34.95398438 34.08570313 -35.57421875 33.03515625 C-40 25.41799532 -40 25.41799532 -40 22 C-39.31599121 21.61779297 -38.63198242 21.23558594 -37.92724609 20.84179688 C-34.74278163 19.06188097 -31.55881545 17.28107657 -28.375 15.5 C-27.23611328 14.86304199 -26.09722656 14.22608398 -24.92382812 13.56982422 C-17.68086618 9.51446633 -10.46152469 5.42306893 -3.28125 1.2578125 C-1 0 -1 0 0 0 Z " fill="#EAE4F1" transform="translate(128,111)"/>
<path d="M0 0 C0.66 0 1.32 0 2 0 C4.1536528 3.74556079 6.29654726 7.49716766 8.4375 11.25 C9.04916016 12.31347656 9.66082031 13.37695312 10.29101562 14.47265625 C10.87431641 15.49746094 11.45761719 16.52226563 12.05859375 17.578125 C12.59798584 18.52075195 13.13737793 19.46337891 13.69311523 20.43457031 C14.83208229 22.67037563 15.53372922 24.55018811 16 27 C15.48614746 27.28198242 14.97229492 27.56396484 14.44287109 27.85449219 C12.08538473 29.15023418 9.73018666 30.45008302 7.375 31.75 C6.56675781 32.1934375 5.75851563 32.636875 4.92578125 33.09375 C1.37271748 35.05804542 -2.11660432 37.02266979 -5.4609375 39.328125 C-8 41 -8 41 -10 41 C-11.51220703 38.84448242 -11.51220703 38.84448242 -13.2578125 35.85546875 C-14.19560547 34.25155273 -14.19560547 34.25155273 -15.15234375 32.61523438 C-15.80332031 31.48408203 -16.45429688 30.35292969 -17.125 29.1875 C-17.78371094 28.06794922 -18.44242188 26.94839844 -19.12109375 25.79492188 C-24 17.38562694 -24 17.38562694 -24 14 C-23.30849854 13.61142822 -22.61699707 13.22285645 -21.90454102 12.82250977 C-18.78956569 11.07087689 -15.67601708 9.31672349 -12.5625 7.5625 C-11.47388672 6.95083984 -10.38527344 6.33917969 -9.26367188 5.70898438 C-8.22919922 5.12568359 -7.19472656 4.54238281 -6.12890625 3.94140625 C-5.17056885 3.40201416 -4.21223145 2.86262207 -3.22485352 2.30688477 C-1.10085689 1.18471061 -1.10085689 1.18471061 0 0 Z " fill="#CDCCE5" transform="translate(204,66)"/>
<path d="M0 0 C3.89832984 4.51092453 6.78165134 9.4829787 9.75 14.625 C10.25660156 15.48351562 10.76320312 16.34203125 11.28515625 17.2265625 C11.76339844 18.0515625 12.24164063 18.8765625 12.734375 19.7265625 C13.16975586 20.47502441 13.60513672 21.22348633 14.05371094 21.99462891 C15 24 15 24 15 27 C11.23159802 29.15012454 7.45987724 31.29435886 3.6875 33.4375 C2.61564453 34.04916016 1.54378906 34.66082031 0.43945312 35.29101562 C-0.58857422 35.87431641 -1.61660156 36.45761719 -2.67578125 37.05859375 C-3.62364502 37.59798584 -4.57150879 38.13737793 -5.5480957 38.69311523 C-8 40 -8 40 -11 41 C-13.18062935 37.25795438 -15.3420238 33.50514777 -17.5 29.75 C-18.12003906 28.68652344 -18.74007812 27.62304688 -19.37890625 26.52734375 C-20.25869141 24.99013672 -20.25869141 24.99013672 -21.15625 23.421875 C-21.70087891 22.47924805 -22.24550781 21.53662109 -22.80664062 20.56542969 C-24 18 -24 18 -24 14 C-22.55053711 12.69140625 -22.55053711 12.69140625 -20.52734375 11.5625 C-19.42422852 10.93214844 -19.42422852 10.93214844 -18.29882812 10.2890625 C-17.51958984 9.86367187 -16.74035156 9.43828125 -15.9375 9 C-15.18533203 8.57460937 -14.43316406 8.14921875 -13.65820312 7.7109375 C-12.16615238 6.86867163 -10.6705763 6.03261751 -9.17138672 5.203125 C-6.09648961 3.49938169 -3.04915498 1.749316 0 0 Z " fill="#EAE4F1" transform="translate(61,149)"/>
</svg>
